<svg xmlns="http://www.w3.org/2000/svg" xmlns:xlink="http://www.w3.org/1999/xlink" version="1.1" x="0px" y="0px" viewBox="0 0 100 125" style="enable-background:new 0 0 100 100;" xml:space="preserve"><g><g><path d="M79.9020996,23.012207l-0.090332-0.2041016c-0.0512695-0.1152344-1.2866211-2.8569336-4.1621094-5.7011719    c-2.6176758-2.5888672-6.4604492-4.1347656-10.2797852-4.1347656h-5v0.8566284    c-1.0313721-0.0089111-2.1740723-0.0128784-3.4604492-0.0128784c-0.5483398,0-0.8505859,0.3022461-0.8505859,0.8505859v3.0556641    H54.661377c-0.3149414,0-0.6875,0.3725586-0.6875,0.6875v10.40625c0,0.3896484,0.1791992,0.6733398,0.3374023,0.9233398    c0.1210938,0.1904297,0.2250977,0.3549805,0.2250977,0.5297852v0.0732422l-0.4375,0.4375l-0.0087891,5.472168l0.4462891,0.4462891    v0.0732422c0,0.0952148-0.0493164,0.1660156-0.1518555,0.3046875c-0.1733398,0.2338867-0.4106445,0.5546875-0.4106445,1.2241211    v19.9008789c0,0.3876953,0.1616211,0.7104492,0.3041992,0.9956055c0.0792236,0.1584473,0.1425171,0.3115234,0.1864624,0.4644165    l-0.4906616,0.4906616l-0.0087891,5.5756836l0.428772,0.428772c-0.0179443,0.0402832-0.0311279,0.0756836-0.0513306,0.1195679    c-0.1557617,0.3374023-0.3686523,0.7993164-0.3686523,1.5087891v11.375c0,0.3676758,0.237793,0.6049805,0.6054688,0.6049805    h0.4145508c0.2978516,0,0.7104492-0.246582,0.7104492-0.7099609v-2.425293c0-0.0415039,0.0073242-0.0908203,0.0424805-0.0908203    h0.3120117v9.737793c0,0.4775391,0.2739258,0.7514648,0.7514648,0.7514648h8.6845703    c7.6459961,0,14.875-6.9726563,14.875-14.347168V28.659668c0-1.9074097-0.4577026-3.6643677-1.1600342-5.2401733    L79.9020996,23.012207z M55.2043457,76.6293945v2.425293c0,0.1572266-0.1660156,0.2099609-0.2104492,0.2099609h-0.4145508    c-0.0952148,0-0.1054688-0.0214844-0.1054688-0.1049805v-11.375c0-0.5996094,0.1713867-0.9711914,0.3227539-1.2993164    c0.112793-0.2446289,0.2192383-0.4755859,0.2192383-0.7421875V59.909668c0-0.355957-0.1479492-0.6513672-0.2905273-0.9365234    c-0.1293945-0.2587891-0.2514648-0.5024414-0.2514648-0.7719727V38.300293c0-0.5048828,0.1586914-0.7192383,0.3125-0.9267578    c0.1171875-0.1582031,0.25-0.3378906,0.25-0.6020508V30.269043c0-0.3193359-0.1606445-0.5732422-0.3022461-0.7973633    c-0.1337891-0.2114258-0.2602539-0.4106445-0.2602539-0.6557617l-0.0004883-10.3964844    c0.0126953-0.0615234,0.1357422-0.1870117,0.1879883-0.1972656h0.5429688V76.6293945z M79.869873,28.659668v44.0209961    c0,7.1176758-6.9858398,13.847168-14.375,13.847168h-8.6845703c-0.2021484,0-0.2514648-0.0493164-0.2514648-0.2514648V14.6665039    c0-0.2719727,0.0786133-0.3505859,0.3505859-0.3505859c11.3427734,0,11.9082031,0.2861328,15.046875,1.8745117    l0.1333008,0.0673828C74.6281738,17.5410156,79.869873,22.2612305,79.869873,28.659668z"/><circle cx="73.098877" cy="32.3886719" r="3"/><circle cx="61.7258301" cy="32.3886719" r="3"/><circle cx="67.4035645" cy="37.8886719" r="3"/><circle cx="67.4035645" cy="26.8886719" r="3"/><circle cx="38.2536621" cy="52.628418" r="3"/><circle cx="26.880127" cy="52.628418" r="3"/><circle cx="32.5578613" cy="58.128418" r="3"/><circle cx="32.5578613" cy="47.128418" r="3"/><path d="M67.411377,46.847168c-3.1879883,0-5.78125,2.5932617-5.78125,5.78125s2.5932617,5.78125,5.78125,5.78125    s5.78125-2.5932617,5.78125-5.78125S70.5993652,46.847168,67.411377,46.847168z M72.6548462,53.0023804    c-0.1876221,2.6207275-2.2783813,4.7021484-4.9036865,4.8729248l-0.3395996-3.0281372l-0.3395996,3.0281982    c-2.6254272-0.1705322-4.7163696-2.2521362-4.9039917-4.8729858l3.0560913-0.3427124l-3.0623779-0.3434448    c0.1582642-2.647583,2.2603149-4.758728,4.9033203-4.934021l0.3465576,3.0899658l0.3465576-3.0899658    c2.6428833,0.175415,4.744751,2.2866211,4.9029541,4.934082l-3.0620117,0.3433838L72.6548462,53.0023804z"/><path d="M63.5080566,62.8173828c-1.862793,0-3.3779297,1.5151367-3.3779297,3.3779297s1.5151367,3.378418,3.3779297,3.378418    s3.378418-1.515625,3.378418-3.378418S65.3708496,62.8173828,63.5080566,62.8173828z"/><path d="M32.4411621,38.1542969c3.1879883,0,5.78125-2.5932617,5.78125-5.78125s-2.5932617-5.78125-5.78125-5.78125    s-5.78125,2.5932617-5.78125,5.78125S29.2531738,38.1542969,32.4411621,38.1542969z M27.1914673,32.0610352    c0.1581421-2.647583,2.2602539-4.7589722,4.9033813-4.9342041l0.3465576,3.0901489l0.3465576-3.0901489    c2.6428223,0.1754761,4.744812,2.2866821,4.9028931,4.9342651L34.6289063,32.40448l3.0556641,0.3427124    c-0.1877441,2.6206055-2.2783813,4.7019653-4.9035645,4.8727417L32.4414063,34.59198l-0.3395996,3.0280151    c-2.6253662-0.1705322-4.7163086-2.2518921-4.9040527-4.8727417l3.0561523-0.3427734L27.1914673,32.0610352z"/><path d="M38.1130371,63.675293h-3.203125c-0.5170898,0-0.9375,0.4204102-0.9375,0.9375v3.203125    c0,0.5170898,0.4204102,0.9375,0.9375,0.9375h3.203125c0.5170898,0,0.9375-0.4204102,0.9375-0.9375v-3.203125    C39.0505371,64.0957031,38.630127,63.675293,38.1130371,63.675293z M38.5505371,67.815918    c0,0.2412109-0.1962891,0.4375-0.4375,0.4375h-3.203125c-0.2412109,0-0.4375-0.1962891-0.4375-0.4375v-3.203125    c0-0.2412109,0.1962891-0.4375,0.4375-0.4375h3.203125c0.2412109,0,0.4375,0.1962891,0.4375,0.4375V67.815918z"/><circle cx="36.5117188" cy="66.2143555" r="1.5546875"/><path d="M46.026123,30.7280273l-0.5411987-0.5411987c0.0259399-0.1451416,0.1019287-0.2873535,0.2037964-0.4475708    c0.1582031-0.25,0.3374023-0.5336914,0.3374023-0.9233398v-10.40625c0-0.3149414-0.3725586-0.6875-0.6875-0.6875h-1.3974609    v-3.0556641c0-0.5483398-0.3022461-0.8505859-0.8505859-0.8505859c-1.2861328,0-2.4287109,0.0039673-3.4599609,0.0128784    V13.222168c0-0.1381836-0.1118164-0.25-0.25-0.25H34.630127c-3.8193359,0-7.6621094,1.5458984-10.2797852,4.1347656    c-2.8754883,2.8442383-4.1108398,5.5859375-4.1621094,5.7011719c-0.0517578,0.1162109-0.0078125,0.2524414,0.1015625,0.3168945    l0.5004883,0.2943115c-0.7023315,1.5758667-1.1601563,3.3328857-1.1601563,5.2403564v44.0209961    c0,7.3745117,7.2290039,14.347168,14.875,14.347168h8.6850586c0.4770508,0,0.7509766-0.2739258,0.7509766-0.7514648v-9.737793    h0.3120117c0.0356445,0,0.0429688,0.0493164,0.0429688,0.0908203v2.425293c0,0.4633789,0.4121094,0.7099609,0.7099609,0.7099609    h0.4150391c0.3676758,0,0.6049805-0.2373047,0.6049805-0.6049805v-11.375c0-0.7094727-0.2128906-1.1713867-0.3681641-1.5087891    c-0.0202637-0.0439453-0.0335083-0.0793457-0.0514526-0.119751l0.428894-0.4285889l-0.0092773-5.5756836l-0.4904175-0.4904175    c0.0438232-0.1528931,0.1069336-0.3060913,0.1862183-0.4646606c0.1425781-0.2851563,0.3041992-0.6083984,0.3041992-0.9956055    V38.300293c0-0.6694336-0.2373047-0.9902344-0.4106445-1.2241211c-0.0719604-0.09729-0.1085815-0.1611328-0.1294556-0.2234497    l0.5493774-0.5490112L46.026123,30.7280273z M43.4411621,86.2763672c0,0.2021484-0.0493164,0.2514648-0.2509766,0.2514648    H34.505127c-7.3891602,0-14.375-6.7294922-14.375-13.847168V28.659668c0-6.3984375,5.2416992-11.1186523,7.7802734-12.4018555    l0.1333008-0.0673828c3.1386719-1.5883789,3.7041016-1.8745117,15.046875-1.8745117    c0.2719727,0,0.3505859,0.0786133,0.3505859,0.3505859V86.2763672z M45.526123,38.300293v19.9008789    c0,0.2695313-0.1220703,0.5136719-0.2509766,0.7719727c-0.1430664,0.2851563-0.2905273,0.5805664-0.2905273,0.9365234v5.8334961    c0,0.2666016,0.1064453,0.4975586,0.2192383,0.7421875c0.1508789,0.328125,0.3222656,0.699707,0.3222656,1.2993164v11.375    c0,0.0834961-0.0102539,0.1049805-0.1049805,0.1049805h-0.4150391c-0.0444336,0-0.2099609-0.0527344-0.2099609-0.2099609    v-2.425293V18.2218628l0.5371094-0.0001831c0.0576172,0.0107422,0.1806641,0.1362305,0.1928711,0.1879883v10.40625    c0,0.2451172-0.1264648,0.4443359-0.2602539,0.6557617c-0.1416016,0.2241211-0.3022461,0.4780273-0.3022461,0.7973633v6.5024414    c0,0.2641602,0.1328125,0.4438477,0.25,0.6020508C45.3674316,37.5810547,45.526123,37.7954102,45.526123,38.300293z"/><path d="M41.7536621,20.440918h-4.03125c-0.0688477,0-0.125,0.0561523-0.125,0.125v1.21875    c0,0.0688477,0.0561523,0.125,0.125,0.125h4.03125c0.0688477,0,0.125-0.0561523,0.125-0.125v-1.21875    C41.8786621,20.4970703,41.8225098,20.440918,41.7536621,20.440918z"/><path d="M59.4299316,23.190918c0,0.0688477,0.0561523,0.125,0.125,0.125h1.21875c0.0688477,0,0.125-0.0561523,0.125-0.125    v-1.28125h1.28125c0.0688477,0,0.125-0.0561523,0.125-0.125v-1.21875c0-0.0688477-0.0561523-0.125-0.125-0.125h-1.28125v-1.28125    c0-0.0688477-0.0561523-0.125-0.125-0.125h-1.21875c-0.0688477,0-0.125,0.0561523-0.125,0.125v1.28125h-1.28125    c-0.0688477,0-0.125,0.0561523-0.125,0.125v1.21875c0,0.0688477,0.0561523,0.125,0.125,0.125h1.28125V23.190918z"/></g></g><text x="0" y="115" fill="#000000" font-size="5px" font-weight="bold" font-family="'Helvetica Neue', Helvetica, Arial-Unicode, Arial, Sans-serif">Created by Alone forever</text><text x="0" y="120" fill="#000000" font-size="5px" font-weight="bold" font-family="'Helvetica Neue', Helvetica, Arial-Unicode, Arial, Sans-serif">from the Noun Project</text></svg>